nColumns=28
nRows=17
DataType=double
version=3
OpenSimVersion=4.1
endheader
time	1_ground_force_vx	1_ground_force_vy	1_ground_force_vz	1_ground_force_px	1_ground_force_py	1_ground_force_pz	1_ground_torque_x	1_ground_torque_y	1_ground_torque_z	2_ground_force_vx	2_ground_force_vy	2_ground_force_vz	2_ground_force_px	2_ground_force_py	2_ground_force_pz	2_ground_torque_x	2_ground_torque_y	2_ground_torque_z	3_ground_force_vx	3_ground_force_vy	3_ground_force_vz	3_ground_force_px	3_ground_force_py	3_ground_force_pz	3_ground_torque_x	3_ground_torque_y	3_ground_torque_z
0.2725	-39.02572197780361	716.5210975777575	45.26705835375328	0.3718222347706636	-0.005999999999990488	0.1019269909932867	-0.06550454193993718	1.198246064728827	0.07593238541991419	-0.0005543945071869922	0.002331083979558909	-0.0004410987484339756	-0.2999900996171843	-0.005999999999990482	0.2000030163449958	1.309993329540381e-06	-8.333539983263983e-05	3.43040594806227e-05	1.716706274651985e-08	4.001199240064125e-09	5.073325881079131e-09	0.9000000001000049	-0.005999999999990482	0.1999999923426587	-5.729533915304236e-10	6.174850725961579e-10	3.285440470345948e-10
0.2733333333333334	-38.60076605483667	715.8019222310127	45.20101165071415	0.3719748614762806	-0.005999999999990522	0.1019050827383991	-0.064680776099308	1.196208830579018	0.07574841609108288	-0.0005544506378400816	0.00205248420093761	-0.0004424240353113338	-0.2999913150946494	-0.005999999999990516	0.2000027287816399	4.132983850094914e-06	-7.236256451048222e-05	3.184465406568729e-05	1.802755924168749e-08	2.462995319373822e-09	4.713594594439739e-09	0.9000000001125646	-0.005999999999990516	0.199999992340336	-5.96692574933746e-10	6.709650696713067e-10	3.501829158019499e-10
0.2741666666666667	-38.18108759564885	715.0873356054253	45.14035996819033	0.3721314782525563	-0.005999999999990548	0.1018802655671836	-0.06391074272826329	1.195010362340705	0.07562617218629593	-0.0005416191992773067	0.001757672793831595	-0.0004333210372887054	-0.2999925950316205	-0.005999999999990542	0.2000024103118869	6.541050950451747e-06	-6.094813997402514e-05	2.892325234875499e-05	1.85254788102437e-08	6.643863851682938e-10	4.184595212279801e-09	0.9000000001237446	-0.005999999999990542	0.1999999923384969	-6.0782690549261e-10	7.136825289142338e-10	3.654058460962829e-10
0.275	-37.76709888314026	714.3773585926524	45.08476784000263	0.372292163475936	-0.005999999999990573	0.1018527531007892	-0.06319940671044087	1.194724019187131	0.07557003433390506	-0.0005176541639961232	0.001455330275744351	-0.0004151792800024186	-0.2999939024104269	-0.005999999999990567	0.2000020718258966	8.525121883247294e-06	-4.940719456511739e-05	2.565991525202227e-05	1.860160477370593e-08	-1.380683298420794e-09	3.47862596154959e-09	0.9000000001330765	-0.005999999999990567	0.1999999923372513	-6.044594855319627e-10	7.431479766396912e-10	3.72997036287275e-10
0.2758333333333334	-37.35922212738048	713.6719681039669	45.03388687046525	0.3724569313648657	-0.0059999999999906	0.1018228147263651	-0.06255068884314903	1.195408365318735	0.07558341393917659	-0.0004843700248744656	0.001153331534755621	-0.0003894413138055216	-0.2999952037575716	-0.005999999999990594	0.200001723448647	1.008699928658283e-05	-3.802214421121298e-05	2.216908496977023e-05	1.820022629000243e-08	-3.650038496236494e-09	2.591639282306477e-09	0.900000000140081	-0.005999999999990594	0.1999999923367077	-5.848316593458352e-10	7.569019821071024e-10	3.717857326702215e-10
0.2766666666666667	-36.95787855843877	712.9711151249275	44.98736628562686	0.3726257305703189	-0.005999999999990628	0.1017907692758544	-0.06196750453836902	1.197107956356598	0.07566881816761097	-0.000443592803226067	0.0008586538827781753	-0.0003575632093110413	-0.2999964695210398	-0.005999999999990621	0.2000013743911428	1.123809075193853e-05	-2.703987975066827e-05	1.855756089066725e-05	1.727104397184753e-08	-6.112805554112097e-09	1.523813216220855e-09	0.9000000001442783	-0.005999999999990621	0.1999999923369698	-5.473866802340888e-10	7.52583399180885e-10	3.606826299983193e-10
0.2775	-36.5634771944375	712.2747416683541	44.94486254246024	0.3727984442216797	-0.005999999999990658	0.1017569777020552	-0.06145181311360392	1.199854227402655	0.07582791939351324	-0.0003971163234717461	0.0005773163491539377	-0.0003209792015743333	-0.2999976743138769	-0.005999999999990652	0.2000010328396664	1.199805876045199e-05	-1.667004412594883e-05	1.492288173982173e-05	1.577117646001641e-08	-8.729113242132849e-09	2.800848897550161e-10	0.9000000001452005	-0.005999999999990652	0.1999999923381338	-4.908361975263056e-10	7.28003724626613e-10	3.38718774522787e-10
0.2783333333333334	-36.17640369401546	711.5827956058795	44.90604731595752	0.3729748918031563	-0.00599999999999069	0.1017218348994459	-0.06100467064281102	1.203666354121181	0.07606161974344522	-0.0003466641753263418	0.0003143480957637425	-0.0002810708356537412	-0.2999987970334847	-0.005999999999990684	0.2000007058813476	1.239343134889452e-05	-7.084369570954581e-06	1.135210563752963e-05	1.366722825383435e-08	-1.144999115695969e-08	-1.12937270796549e-09	0.9000000001424051	-0.005999999999990684	0.199999992340284	-4.142281813502225e-10	6.812264044825706e-10	3.050862693251836e-10
0.2791666666666667	-35.79700963036466	710.8952429413622	44.87061325624565	0.3731548331459038	-0.005999999999990724	0.1016857605958786	-0.06062628093754502	1.208551991330399	0.07637010363215428	-0.0002938576047172109	7.378339762351778e-05	-0.0002391408218631172	-0.2999998208679026	-0.005999999999990718	0.2000003994636774	1.245621021949667e-05	1.583029554679539e-06	7.920971465083563e-06	1.093737244114205e-08	-1.42174935040778e-08	-2.688750361633824e-09	0.9000000001354903	-0.005999999999990718	0.19999999234349	-3.170146892119676e-10	6.106496415293679e-10	2.591799453469007e-10
0.28	-35.42560245033237	710.2120777461208	44.83827709512455	0.3733379746484161	-0.005999999999990761	0.1016491891738983	-0.06031604156166945	1.214507841318677	0.07675287457866259	-0.0002401894096608411	-0.0001413196954901336	-0.0001963916760797619	-0.3000007332016967	-0.005999999999990755	0.200000118385073	1.222250891964562e-05	9.234523045560373e-06	4.693417945680836e-06	7.573395675929692e-09	-1.696507372094168e-08	-4.376298898276472e-09	0.9000000001241111	-0.005999999999990755	0.1999999923478024	-1.991176793504437e-10	5.150909809041108e-10	2.006390296844416e-10
0.2808333333333333	-35.0624363445808	709.5333304260847	44.8087799616661	0.3735239776302297	-0.005999999999990802	0.101612558419198	-0.06007258500488283	1.221520067798494	0.07720877717287376	-0.0001870037692022723	-0.0003288401251574826	-0.0001539091007893951	-0.3000015254349832	-0.005999999999990796	0.1999998663132045	1.173124933319109e-05	1.580711157752739e-05	1.721431203009306e-06	3.582647035207026e-09	-1.961823207470111e-08	-6.16414234936339e-09	0.9000000001079953	-0.005999999999990796	0.1999999923532492	-6.099089838082157e-11	3.938716849091424e-10	1.293877194573238e-10
0.2816666666666667	-34.70770426150086	708.8590750693782	44.78188506777881	0.3737124685393953	-0.005999999999990844	0.10157629742392	-0.05989381807665823	1.22956462730869	0.07773600918705917	-0.0001354818038034313	-0.0004875372537001142	-0.0001126499574175274	-0.3000021927296044	-0.005999999999990838	0.1999996458275218	1.102294017996626e-05	2.126997822466811e-05	-9.54812768364176e-07	-1.010172529240126e-09	-2.209545403745411e-08	-8.018227786873101e-09	0.9000000000869606	-0.005999999999990838	0.1999999923598325	9.632427764201615e-11	2.46898660286353e-10	4.567345918862491e-11
0.2825	-34.36153133976737	708.1894363898897	44.75737317378553	0.3739030505932138	-0.005999999999990888	0.1015408140478435	-0.05977696373769184	1.238607608790307	0.07833213048215544	-8.663255518588952e-05	-0.0006169802296197439	-7.343459071291873e-05	-0.3000027336965831	-0.005999999999990881	0.1999994584822596	1.013855663792148e-05	2.562156889079612e-05	-3.306547346342979e-06	-6.161447313037117e-09	-2.430945189341656e-08	-9.898430553113133e-09	0.9000000000609308	-0.005999999999990881	0.1999999923675244	2.711512813424053e-10	7.474148047616832e-11	-4.989837330080061e-11
0.2833333333333333	-34.02397007811855	707.5245963711109	44.73503638510717	0.3740953163342609	-0.005999999999990927	0.1015064824036377	-0.0597186088247981	1.248605652535349	0.0789940743643377	-4.128898297078971e-05	-0.0007174665188984843	-3.694319186569366e-05	-0.300003150038751	-0.005999999999990921	0.1999993048861426	9.118535693624635e-06	2.888632270224001e-05	-5.315794727052493e-06	-1.180738034412991e-08	-2.61687156764876e-08	-1.175883191817598e-08	0.9000000000299507	-0.005999999999990921	0.1999999923762646	4.611413714156894e-10	-1.212981391206322e-10	-1.563347383408762e-10
0.2841666666666667	-33.69499754421585	706.8648002274869	44.7146708261796	0.3742888605372039	-0.005999999999990954	0.1014736308198882	-0.05971475954985567	1.259506485843434	0.07971816489964761	-1.085043926216186e-07	-0.0007899327188065316	-3.715828607635626e-06	-0.3000034461619171	-0.005999999999990948	0.1999991847950549	8.001897488240198e-06	3.111116786665994e-05	-6.974564820127564e-06	-1.786309414494771e-08	-2.757937221160267e-08	-1.354818385214346e-08	0.8999999999942002	-0.005999999999990948	0.1999999923859578	6.63249545224121e-10	-3.391271936611445e-10	-2.722315731680156e-10
0.285	-33.37451478978923	706.2103608878228	44.69606861811113	0.3744832929094116	-0.005999999999990967	0.1014425307152267	-0.05976090529003399	1.271249587380057	0.0805001419052199	3.642244866859888e-05	-0.0008358605980785373	2.584427265492854e-05	-0.3000036287671646	-0.005999999999990961	0.199999097214053	6.825498839051681e-06	3.236189090310174e-05	-8.283912601648856e-06	-2.422216909813077e-08	-2.844734280742803e-08	-1.521057256884154e-08	0.8999999999540079	-0.005999999999990961	0.1999999923964713	8.737256197291315e-10	-5.758154335871684e-10	-3.957582207489005e-10
0.2858333333333333	-33.06234838529424	705.5616610852641	44.67900946819761	0.3746782500701376	-0.00599999999999096	0.1014133868304783	-0.05985209025146081	1.28376698027723	0.08133519439220303	6.798041503174567e-05	-0.0008571810856612982	5.146463630221299e-05	-0.3000037064358784	-0.005999999999990954	0.1999990405052995	5.623421347669454e-06	3.271947790058877e-05	-9.252891814569748e-06	-3.075668723706999e-08	-2.868078112209259e-08	-1.668628877640905e-08	0.8999999999098597	-0.005999999999990954	0.1999999924076342	1.088122646106435e-09	-8.275654852644746e-10	-5.246510485955404e-10
